<svg width="24" height="24" viewBox="0 0 24 24" fill="none" xmlns="http://www.w3.org/2000/svg">
<g opacity="0.6" clip-path="url(#clip0_1229_366)">
<path d="M2 3.993C2.00183 3.73038 2.1069 3.47902 2.29251 3.29322C2.47813 3.10742 2.72938 3.00209 2.992 3H21.008C21.556 3 22 3.445 22 3.993L22 20.007C21.9982 20.2696 21.8931 20.521 21.7075 20.7068C21.5219 20.8926 21.2706 20.9979 21.008 21H2.992C2.72881 20.9997 2.4765 20.895 2.29049 20.7088C2.10448 20.5226 2 20.2702 2 20.007L2 3.993ZM11 5H4L4 19H11L11 5ZM13 5L13 19H20L20 5H13ZM14 7H19V9H14L14 7ZM14 10H19V12H14V10Z" fill="#1E2742"/>
</g>
<defs>
<clipPath id="clip0_1229_366">
<rect width="24" height="24" fill="white"/>
</clipPath>
</defs>
</svg>
