<svg width="16" height="16" viewBox="0 0 16 16" fill="none" xmlns="http://www.w3.org/2000/svg">
<g opacity="0.8">
<path d="M7.99976 8.66821C9.10433 8.66821 9.99976 7.77278 9.99976 6.66821C9.99976 5.56364 9.10433 4.66821 7.99976 4.66821C6.89519 4.66821 5.99976 5.56364 5.99976 6.66821C5.99976 7.77278 6.89519 8.66821 7.99976 8.66821Z" stroke="#1E2742" stroke-width="1.5" stroke-linecap="round" stroke-linejoin="round"/>
<path d="M7.99935 1.33459C6.58486 1.33459 5.22831 1.8965 4.22811 2.89669C3.22792 3.89689 2.66602 5.25344 2.66602 6.66793C2.66602 7.92926 2.93402 8.75459 3.66602 9.66793L7.99935 14.6679L12.3327 9.66793C13.0647 8.75459 13.3327 7.92926 13.3327 6.66793C13.3327 5.25344 12.7708 3.89689 11.7706 2.89669C10.7704 1.8965 9.41384 1.33459 7.99935 1.33459V1.33459Z" stroke="#1E2742" stroke-width="1.5" stroke-linecap="round" stroke-linejoin="round"/>
</g>
</svg>
