<svg width="13" height="13" viewBox="0 0 13 13" fill="none" xmlns="http://www.w3.org/2000/svg">
<g clip-path="url(#clip0_1209_948)">
<path fill-rule="evenodd" clip-rule="evenodd" d="M6.50012 0.499634C3.18649 0.499634 0.500122 3.186 0.500122 6.49963C0.500122 9.81327 3.18649 12.4996 6.50012 12.4996C9.81376 12.4996 12.5001 9.81327 12.5001 6.49963C12.5001 3.186 9.81376 0.499634 6.50012 0.499634ZM9.10085 5.48509C9.14874 5.43035 9.1852 5.36658 9.20808 5.29754C9.23096 5.22851 9.2398 5.15559 9.23409 5.08308C9.22837 5.01057 9.20822 4.93994 9.1748 4.87534C9.14138 4.81074 9.09539 4.75347 9.03951 4.70691C8.98364 4.66035 8.91902 4.62543 8.84945 4.60421C8.77988 4.58299 8.70677 4.5759 8.63442 4.58336C8.56207 4.59081 8.49195 4.61266 8.42816 4.64762C8.36438 4.68257 8.30824 4.72993 8.26303 4.78691L5.91758 7.60091L4.70394 6.38672C4.60107 6.28737 4.46328 6.23239 4.32027 6.23363C4.17725 6.23487 4.04044 6.29224 3.93931 6.39337C3.83818 6.4945 3.78082 6.63131 3.77957 6.77432C3.77833 6.91734 3.83331 7.05512 3.93267 7.158L5.56903 8.79436C5.62263 8.84792 5.68679 8.88973 5.75744 8.91712C5.82809 8.94451 5.90367 8.95688 5.97936 8.95344C6.05505 8.95 6.1292 8.93083 6.19707 8.89715C6.26495 8.86347 6.32506 8.81602 6.37358 8.75782L9.10085 5.48509Z" fill="#008000"/>
</g>
<defs>
<clipPath id="clip0_1209_948">
<rect width="13" height="13" fill="white"/>
</clipPath>
</defs>
</svg>
