<svg width="20" height="20" viewBox="0 0 20 20" fill="none" xmlns="http://www.w3.org/2000/svg">
<g clip-path="url(#clip0_1229_304)">
<path d="M9.00012 19.9987C9.66316 19.9987 10.299 19.7353 10.7679 19.2664C11.2367 18.7976 11.5001 18.1617 11.5001 17.4987H6.50012C6.50012 18.1617 6.76351 18.7976 7.23236 19.2664C7.7012 19.7353 8.33708 19.9987 9.00012 19.9987ZM9.00012 2.39615L8.00387 2.5974C6.87382 2.82765 5.85804 3.44128 5.12844 4.33443C4.39884 5.22758 4.00025 6.34538 4.00012 7.49865C4.00012 8.28365 3.83262 10.2449 3.42637 12.1762C3.22637 13.1349 2.95637 14.1337 2.59762 14.9987H15.4026C15.0439 14.1337 14.7751 13.1362 14.5739 12.1762C14.1676 10.2449 14.0001 8.28365 14.0001 7.49865C13.9997 6.3456 13.601 5.22809 12.8714 4.3352C12.1418 3.4423 11.1262 2.82886 9.99637 2.59865L9.00012 2.3949V2.39615ZM16.7751 14.9987C17.0539 15.5574 17.3764 15.9999 17.7501 16.2487H0.250122C0.623872 15.9999 0.946372 15.5574 1.22512 14.9987C2.35012 12.7487 2.75012 8.59865 2.75012 7.49865C2.75012 4.47365 4.90012 1.94865 7.75637 1.3724C7.73893 1.19859 7.7581 1.02306 7.81266 0.857119C7.86723 0.691178 7.95596 0.538514 8.07315 0.408975C8.19034 0.279435 8.33338 0.175895 8.49304 0.105033C8.6527 0.0341704 8.82544 -0.00244141 9.00012 -0.00244141C9.1748 -0.00244141 9.34755 0.0341704 9.50721 0.105033C9.66687 0.175895 9.80991 0.279435 9.9271 0.408975C10.0443 0.538514 10.133 0.691178 10.1876 0.857119C10.2421 1.02306 10.2613 1.19859 10.2439 1.3724C11.6567 1.65978 12.9268 2.4266 13.8392 3.54303C14.7515 4.65945 15.2499 6.05687 15.2501 7.49865C15.2501 8.59865 15.6501 12.7487 16.7751 14.9987Z" fill="#1E2742"/>
</g>
<defs>
<clipPath id="clip0_1229_304">
<rect width="20" height="20" fill="white"/>
</clipPath>
</defs>
</svg>
