<svg width="24" height="24" viewBox="0 0 24 24" fill="none" xmlns="http://www.w3.org/2000/svg">
<g opacity="0.6" clip-path="url(#clip0_1229_375)">
<path d="M18 17V22H16L16 17C16 12.549 18.644 8.715 22.447 6.984L23.275 8.804C21.7017 9.51958 20.3677 10.6729 19.4323 12.1263C18.4969 13.5797 17.9996 15.2716 18 17ZM7.99998 17L7.99998 22H5.99998L5.99998 17C6.00012 15.2718 5.5028 13.5801 4.56741 12.1269C3.63202 10.6737 2.2981 9.52051 0.724976 8.805L1.55298 6.984C3.47566 7.85849 5.10598 9.26796 6.2492 11.0441C7.39242 12.8201 8.00021 14.8878 7.99998 17ZM12 12C10.6739 12 9.40212 11.4732 8.46444 10.5355C7.52676 9.59785 6.99998 8.32608 6.99998 7C6.99998 5.67392 7.52676 4.40215 8.46444 3.46447C9.40212 2.52678 10.6739 2 12 2C13.3261 2 14.5978 2.52678 15.5355 3.46447C16.4732 4.40215 17 5.67392 17 7C17 8.32608 16.4732 9.59785 15.5355 10.5355C14.5978 11.4732 13.3261 12 12 12ZM12 10C12.3939 10 12.784 9.9224 13.148 9.77164C13.512 9.62087 13.8427 9.3999 14.1213 9.12132C14.3999 8.84274 14.6208 8.51203 14.7716 8.14805C14.9224 7.78407 15 7.39397 15 7C15 6.60603 14.9224 6.21593 14.7716 5.85195C14.6208 5.48797 14.3999 5.15726 14.1213 4.87868C13.8427 4.6001 13.512 4.37913 13.148 4.22836C12.784 4.0776 12.3939 4 12 4C11.2043 4 10.4413 4.31607 9.87865 4.87868C9.31605 5.44129 8.99998 6.20435 8.99998 7C8.99998 7.79565 9.31605 8.55871 9.87865 9.12132C10.4413 9.68393 11.2043 10 12 10Z" fill="#1E2742"/>
</g>
<defs>
<clipPath id="clip0_1229_375">
<rect width="24" height="24" fill="white"/>
</clipPath>
</defs>
</svg>
