<svg width="335" height="107" viewBox="0 0 335 107" fill="none" xmlns="http://www.w3.org/2000/svg">
<path d="M0.360866 15.9231L0.000170104 90.923C-0.0424715 99.7896 7.13336 107 16 107H207.084C215.921 107 223.084 99.8365 223.084 91V79.9631C223.084 71.1265 230.248 63.9631 239.084 63.9631H318.923C327.759 63.9631 334.923 56.7997 334.923 47.9631V16C334.923 7.16345 327.759 0 318.923 0H16.3607C7.55416 0 0.403219 7.11664 0.360866 15.9231Z" fill="white"/>
<path d="M0.360866 15.9231L0.000170104 90.923C-0.0424715 99.7896 7.13336 107 16 107H207.084C215.921 107 223.084 99.8365 223.084 91V79.9631C223.084 71.1265 230.248 63.9631 239.084 63.9631H318.923C327.759 63.9631 334.923 56.7997 334.923 47.9631V16C334.923 7.16345 327.759 0 318.923 0H16.3607C7.55416 0 0.403219 7.11664 0.360866 15.9231Z" fill="#FBF8F2"/>
</svg>
