<svg width="12" height="12" viewBox="0 0 12 12" fill="none" xmlns="http://www.w3.org/2000/svg">
<path d="M6 0C2.68661 0 0 2.68661 0 6C0 9.31339 2.68661 12 6 12C9.31339 12 12 9.31339 12 6C12 2.68661 9.31339 0 6 0ZM5.57143 3.10714C5.57143 3.04821 5.61964 3 5.67857 3H6.32143C6.38036 3 6.42857 3.04821 6.42857 3.10714L6.42857 6.75C6.42857 6.80893 6.38036 6.85714 6.32143 6.85714H5.67857C5.61964 6.85714 5.57143 6.80893 5.57143 6.75L5.57143 3.10714ZM6 9C5.83178 8.99657 5.6716 8.92733 5.55384 8.80714C5.43609 8.68696 5.37013 8.5254 5.37013 8.35714C5.37013 8.18888 5.43609 8.02733 5.55384 7.90714C5.6716 7.78696 5.83178 7.71772 6 7.71429C6.16822 7.71772 6.3284 7.78696 6.44616 7.90714C6.56391 8.02733 6.62987 8.18888 6.62987 8.35714C6.62987 8.5254 6.56391 8.68696 6.44616 8.80714C6.3284 8.92733 6.16822 8.99657 6 9Z" fill="#FE7A15"/>
</svg>
