<svg width="25" height="25" viewBox="0 0 25 25" fill="none" xmlns="http://www.w3.org/2000/svg">
<path d="M22.5345 6.92275C22.2073 6.16502 21.7354 5.47838 21.1454 4.90126C20.5549 4.32242 19.8587 3.86242 19.0946 3.54628C18.3023 3.21716 17.4525 3.0487 16.5946 3.05068C15.391 3.05068 14.2167 3.38027 13.1962 4.00282C12.952 4.15175 12.7201 4.31532 12.5004 4.49355C12.2806 4.31532 12.0487 4.15175 11.8046 4.00282C10.7841 3.38027 9.60974 3.05068 8.40613 3.05068C7.53943 3.05068 6.69958 3.21669 5.90613 3.54628C5.13953 3.86366 4.44861 4.32021 3.85535 4.90126C3.26452 5.47773 2.79255 6.16454 2.46619 6.92275C2.12683 7.71132 1.95349 8.54872 1.95349 9.41054C1.95349 10.2235 2.11951 11.0707 2.4491 11.9325C2.72498 12.6527 3.12048 13.3998 3.62585 14.1542C4.42664 15.348 5.52771 16.5932 6.8949 17.8554C9.16052 19.9477 11.4042 21.393 11.4994 21.4516L12.078 21.8227C12.3344 21.9862 12.6639 21.9862 12.9203 21.8227L13.4989 21.4516C13.5941 21.3905 15.8353 19.9477 18.1034 17.8554C19.4706 16.5932 20.5717 15.348 21.3724 14.1542C21.8778 13.3998 22.2758 12.6527 22.5492 11.9325C22.8788 11.0707 23.0448 10.2235 23.0448 9.41054C23.0472 8.54872 22.8739 7.71132 22.5345 6.92275ZM12.5004 19.8915C12.5004 19.8915 3.80896 14.3226 3.80896 9.41054C3.80896 6.92275 5.86707 4.90615 8.40613 4.90615C10.1908 4.90615 11.7386 5.90224 12.5004 7.35732C13.2621 5.90224 14.8099 4.90615 16.5946 4.90615C19.1337 4.90615 21.1918 6.92275 21.1918 9.41054C21.1918 14.3226 12.5004 19.8915 12.5004 19.8915Z" fill="#1E2742" fill-opacity="0.6"/>
</svg>
