<svg width="18" height="18" viewBox="0 0 18 18" fill="none" xmlns="http://www.w3.org/2000/svg">
<path d="M2.0379 6.20467L6.501 5.55603L8.49612 1.5113C8.55061 1.40056 8.64026 1.31091 8.751 1.25642C9.02874 1.11931 9.36624 1.23357 9.50511 1.5113L11.5002 5.55603L15.9633 6.20467C16.0864 6.22225 16.1989 6.28025 16.285 6.36815C16.3891 6.47517 16.4465 6.61916 16.4445 6.76847C16.4426 6.91779 16.3814 7.0602 16.2745 7.16444L13.0453 10.3127L13.8082 14.7582C13.8261 14.8616 13.8147 14.968 13.7752 15.0652C13.7357 15.1624 13.6698 15.2467 13.5849 15.3084C13.5 15.37 13.3995 15.4067 13.2948 15.4141C13.1901 15.4216 13.0854 15.3996 12.9926 15.3506L9.00061 13.2518L5.00861 15.3506C4.89963 15.4086 4.77306 15.4279 4.65177 15.4068C4.34591 15.3541 4.14025 15.0641 4.19299 14.7582L4.95588 10.3127L1.72677 7.16444C1.63888 7.0783 1.58087 6.9658 1.56329 6.84276C1.51583 6.53514 1.73029 6.25037 2.0379 6.20467Z" fill="#F9C83C"/>
</svg>
